<?xml version="1.0" standalone="no"?>
<!DOCTYPE svg PUBLIC "-//W3C//DTD SVG 20010904//EN"
 "http://www.w3.org/TR/2001/REC-SVG-20010904/DTD/svg10.dtd">
<svg version="1.0" xmlns="http://www.w3.org/2000/svg"
 width="260.000000pt" height="260.000000pt" viewBox="0 0 260.000000 260.000000"
 preserveAspectRatio="xMidYMid meet">
<metadata>
Created by potrace 1.14, written by Peter Selinger 2001-2017
</metadata>
<g transform="translate(0.000000,260.000000) scale(0.100000,-0.100000)"
fill="#000000" stroke="none">
<path d="M1232 2583 c-6 -2 -10 -8 -7 -12 2 -5 -12 -6 -31 -4 -20 2 -33 0 -30
-5 3 -5 -1 -9 -9 -9 -8 0 -12 4 -9 9 3 4 1 8 -5 8 -5 0 -13 -5 -17 -11 -5 -8
-9 -8 -14 1 -5 8 -11 7 -23 -4 -16 -17 -32 -22 -23 -8 2 4 -4 8 -14 8 -10 0
-17 -4 -14 -7 2 -4 -8 -7 -23 -7 -46 1 -53 -1 -47 -17 4 -9 0 -15 -10 -15 -9
0 -16 -7 -16 -15 0 -9 -6 -12 -17 -8 -11 4 -14 3 -9 -5 5 -8 1 -10 -10 -5 -11
4 -22 -1 -30 -12 -10 -14 -14 -15 -14 -4 0 12 -2 12 -9 0 -5 -8 -21 -15 -37
-17 -28 -3 -47 -21 -38 -36 3 -5 2 -8 -3 -7 -19 3 -27 -2 -14 -10 10 -7 5 -11
-18 -16 -17 -3 -31 -11 -31 -17 0 -6 -3 -9 -6 -5 -3 3 -17 -7 -31 -24 -14 -16
-29 -29 -34 -29 -6 0 3 12 18 26 l28 25 -33 -22 c-18 -13 -30 -29 -27 -37 2
-7 0 -10 -5 -7 -6 4 -24 -7 -41 -24 -25 -26 -27 -31 -12 -32 13 0 11 -4 -9
-12 -38 -18 -78 -63 -65 -76 7 -7 3 -8 -13 -4 -16 4 -21 3 -16 -6 5 -7 -3 -20
-18 -32 -14 -11 -26 -29 -26 -40 0 -13 -4 -18 -12 -13 -8 5 -9 2 -5 -9 4 -10
1 -17 -6 -17 -8 0 -6 -4 3 -10 13 -8 13 -10 -2 -10 -11 0 -16 -6 -13 -20 2
-11 -1 -23 -7 -26 -7 -5 -8 -2 -3 6 6 10 4 12 -9 7 -10 -4 -20 -7 -23 -7 -2 0
3 -8 12 -17 16 -16 16 -18 -1 -30 -11 -8 -20 -18 -20 -23 -1 -6 -3 -13 -4 -17
-1 -5 -2 -12 -1 -17 1 -5 -5 -6 -13 -3 -10 4 -14 0 -11 -13 2 -11 -2 -26 -10
-34 -8 -7 -12 -16 -9 -18 2 -3 -2 -11 -10 -17 -8 -7 -12 -19 -9 -27 3 -8 1
-14 -4 -14 -5 0 -10 -11 -11 -26 -1 -14 2 -23 8 -19 6 3 10 1 10 -4 0 -6 -7
-11 -15 -11 -14 0 -17 -11 -18 -67 -1 -13 -4 -23 -9 -23 -4 0 -12 -9 -18 -20
-9 -16 -8 -19 7 -14 10 3 7 -2 -7 -10 -14 -8 -21 -15 -16 -16 6 0 1 -7 -10
-16 -10 -8 -12 -13 -4 -9 10 4 9 2 -2 -8 -10 -8 -15 -17 -11 -21 4 -4 -3 -9
-16 -13 -14 -3 -20 -11 -17 -20 3 -8 1 -11 -4 -8 -6 3 -10 0 -10 -7 0 -10 -2
-10 -9 1 -6 9 -11 10 -15 2 -4 -6 -4 -16 0 -23 5 -7 3 -8 -7 -2 -32 20 -47 8
-40 -30 1 -5 -6 -3 -15 5 -10 8 -15 9 -11 2 4 -6 3 -14 -2 -17 -13 -8 -1 -47
13 -40 6 3 2 -2 -8 -10 -15 -12 -16 -16 -5 -16 12 0 12 -2 -1 -10 -13 -9 -13
-10 0 -10 13 0 13 -1 0 -10 -12 -7 -12 -10 -1 -10 7 0 11 -6 8 -14 -6 -15 12
-26 44 -26 13 0 19 -6 17 -16 -2 -10 10 -23 29 -34 18 -9 30 -20 26 -24 -3 -3
0 -6 8 -6 11 0 11 -2 -1 -10 -12 -8 -12 -10 5 -10 17 0 17 -2 5 -10 -13 -8
-13 -13 -2 -31 8 -11 9 -18 3 -14 -7 3 -12 -3 -13 -17 -1 -13 -2 -30 -3 -38 0
-8 -4 -20 -8 -27 -4 -6 -3 -14 3 -18 5 -3 10 -12 10 -18 0 -7 -4 -6 -11 3 -8
12 -10 9 -6 -12 2 -17 0 -25 -6 -21 -6 4 -8 0 -4 -10 3 -10 3 -17 -1 -17 -6 0
-12 -59 -13 -135 0 -11 -5 -23 -12 -27 -9 -6 -8 -8 2 -8 11 0 11 -3 0 -16 -10
-13 -10 -17 0 -24 11 -6 11 -9 0 -13 -12 -5 -12 -7 -1 -15 11 -7 10 -11 -4
-16 -16 -6 -16 -8 2 -21 19 -15 19 -15 0 -8 -14 4 -17 3 -12 -6 4 -6 2 -19 -6
-28 -7 -9 -8 -14 -2 -10 7 4 12 -3 12 -18 0 -14 -5 -28 -10 -31 -5 -3 -4 -11
2 -19 8 -10 7 -16 -7 -24 -15 -8 -16 -13 -6 -30 8 -13 9 -22 3 -26 -6 -4 -7
-11 -4 -17 4 -7 2 -8 -5 -4 -8 5 -11 -1 -10 -21 1 -15 1 -32 -1 -38 -1 -5 -2
-23 -1 -39 1 -20 5 -27 15 -23 10 4 12 0 8 -15 -4 -16 -2 -19 9 -13 8 5 11 5
7 0 -4 -4 -2 -15 5 -23 10 -13 9 -15 -3 -8 -9 4 -8 2 2 -7 10 -8 15 -16 12
-19 -2 -3 2 -8 11 -12 9 -3 14 -2 11 2 -3 5 1 9 9 9 8 0 12 -4 9 -9 -3 -4 2
-11 10 -14 9 -3 13 -10 10 -15 -3 -5 2 -6 10 -3 11 4 16 0 16 -11 0 -14 3 -15
14 -6 12 10 13 8 9 -10 -5 -19 -3 -21 15 -17 14 4 22 0 25 -14 3 -11 10 -17
15 -14 6 3 12 1 14 -5 2 -6 23 -13 47 -16 41 -5 44 -4 38 16 -3 12 -1 21 5 21
6 0 3 12 -7 26 -9 15 -11 23 -4 19 9 -6 11 -2 7 13 -4 12 -3 20 2 17 4 -3 7 9
6 25 0 17 -5 30 -10 30 -6 0 -2 6 9 13 11 9 14 16 7 20 -5 4 -8 16 -5 27 3 11
-1 28 -8 37 -10 12 -10 14 -1 9 7 -4 12 -2 12 6 0 8 -6 20 -12 27 -8 9 -8 11
-2 8 7 -4 15 0 18 9 4 10 2 13 -6 8 -7 -5 -9 0 -6 14 4 12 2 25 -3 28 -5 3 -6
10 -3 16 4 6 0 14 -7 19 -9 6 -10 9 -2 9 6 0 11 13 11 30 -1 18 -5 27 -12 24
-6 -3 -3 1 6 9 23 18 23 28 1 20 -15 -6 -16 -4 -5 9 10 13 10 17 0 21 -9 4 -9
6 2 6 12 1 16 13 15 49 0 26 -4 53 -9 61 -6 9 -5 12 1 8 6 -4 14 0 17 9 9 23
8 26 -6 18 -10 -6 -10 -4 0 7 6 7 12 21 12 30 0 9 6 22 14 29 8 6 12 18 9 26
-4 11 2 14 26 12 17 -1 33 -8 36 -16 3 -7 9 -11 13 -8 5 3 15 -4 22 -15 8 -10
18 -19 23 -19 5 0 15 -7 23 -15 18 -18 38 -20 28 -3 -4 6 5 3 19 -8 15 -10 27
-23 27 -27 0 -5 5 -5 10 -2 6 3 10 1 10 -6 0 -7 3 -9 7 -6 3 4 12 -1 20 -11 8
-9 12 -12 9 -6 -3 6 1 11 8 11 8 0 12 -6 9 -14 -3 -8 2 -14 13 -15 11 0 24 -2
31 -2 6 -1 15 -5 20 -10 5 -5 2 -6 -6 -1 -10 6 -12 4 -6 -5 6 -10 11 -9 22 5
7 11 13 14 13 9 0 -10 13 -14 52 -15 10 0 24 -9 32 -20 10 -15 16 -17 21 -8 6
8 10 7 17 -4 5 -9 15 -14 22 -11 8 3 17 0 21 -6 5 -8 10 -8 20 0 10 8 15 8 20
0 5 -8 11 -7 23 2 13 11 14 11 7 -1 -6 -11 -3 -13 14 -8 15 3 24 0 28 -10 5
-12 7 -12 14 -1 7 10 9 10 9 1 0 -7 5 -13 11 -13 5 0 7 4 4 10 -3 6 1 7 9 4 9
-3 13 -11 10 -18 -3 -6 2 -2 10 8 9 11 16 16 16 10 0 -5 13 -10 30 -10 20 -1
27 2 23 10 -3 6 4 2 17 -9 13 -11 20 -14 15 -6 -6 11 -4 13 11 7 27 -12 94
-13 94 -3 0 5 7 4 15 -3 8 -7 15 -8 15 -3 0 6 28 9 65 7 36 -1 63 1 60 6 -3 5
5 7 17 4 13 -3 31 -6 41 -6 9 1 17 -6 17 -14 0 -8 4 -13 8 -10 4 2 8 -4 8 -14
0 -10 -4 -16 -8 -14 -13 8 -9 -11 5 -25 10 -11 9 -12 -2 -6 -11 6 -13 3 -9
-13 4 -12 3 -22 -1 -22 -4 0 -7 -9 -7 -19 0 -11 5 -17 11 -13 5 3 4 -2 -3 -11
-8 -9 -10 -22 -6 -28 4 -7 3 -9 -2 -6 -6 3 -10 -16 -12 -45 -1 -28 -6 -56 -11
-62 -6 -7 -6 -17 -1 -26 5 -8 7 -17 4 -21 -2 -4 0 -10 6 -14 6 -4 4 -15 -6
-31 -13 -19 -14 -24 -3 -24 11 0 11 -2 0 -9 -8 -5 -16 -19 -18 -32 -3 -19 -1
-20 14 -8 17 13 17 13 1 -7 -14 -16 -15 -23 -5 -34 9 -10 9 -11 0 -6 -9 5 -11
2 -7 -9 6 -14 40 -15 280 -15 254 1 275 2 284 19 5 10 6 21 2 25 -3 4 1 4 10
1 9 -4 18 0 21 9 4 9 2 16 -3 16 -6 0 -6 9 0 25 7 17 6 25 -1 25 -8 0 -8 5 1
15 6 8 13 26 15 40 3 27 35 70 35 47 0 -7 -5 -12 -12 -12 -6 0 -8 -3 -5 -7 4
-3 15 1 25 10 10 10 22 14 25 10 4 -3 7 0 7 7 0 7 3 11 6 7 3 -3 20 9 36 26
17 18 28 26 24 20 -5 -9 -2 -11 8 -7 9 3 13 10 10 15 -3 5 4 9 15 9 28 0 39
26 37 87 0 28 2 49 7 46 9 -5 4 27 -6 44 -4 6 -3 14 3 18 6 4 7 11 4 17 -4 6
0 14 7 19 12 7 11 9 -1 9 -13 0 -13 2 -1 9 12 8 13 12 1 26 -7 9 -9 15 -4 13
5 -2 10 1 11 5 1 5 9 14 19 21 13 10 14 15 4 21 -9 6 -11 4 -5 -5 5 -8 4 -11
-3 -7 -12 8 -11 25 2 46 7 10 6 12 -4 6 -10 -6 -12 -4 -7 7 3 9 0 21 -6 27 -9
10 -9 12 3 9 16 -4 21 21 6 40 -5 7 -5 12 0 11 24 -4 36 2 30 17 -5 14 -4 15
8 5 11 -9 15 -8 20 5 5 12 9 14 20 5 10 -8 16 -8 25 2 6 8 7 18 3 23 -4 4 0 4
8 -2 8 -6 29 -10 45 -9 45 3 47 4 40 15 -3 6 1 7 9 4 14 -5 16 8 16 99 0 107
-5 137 -22 137 -5 0 -6 -5 -3 -11 4 -6 -2 -5 -13 2 -12 7 -19 16 -16 20 2 5
-5 6 -16 4 -11 -2 -18 0 -15 6 4 5 2 9 -4 9 -6 0 -19 9 -30 21 -11 13 -24 18
-32 14 -8 -5 -10 -4 -5 3 4 7 2 12 -3 12 -6 0 -11 10 -11 23 0 15 -3 18 -8 9
-6 -8 -9 -2 -9 18 0 16 4 30 9 30 5 0 6 -5 2 -12 -4 -7 -3 -8 4 -4 9 5 9 13 1
28 -8 15 -8 19 0 14 6 -4 11 -2 11 3 0 6 -4 11 -9 11 -9 0 -3 30 15 74 6 15 4
17 -7 11 -12 -8 -12 -6 0 8 10 13 10 17 1 17 -10 0 -10 3 -1 14 9 10 9 16 1
21 -8 5 -8 11 1 21 9 11 8 14 -2 14 -9 0 -10 3 -4 8 14 9 17 52 4 52 -5 0 -9
5 -9 11 0 5 4 8 9 4 6 -3 6 6 1 25 -5 16 -7 30 -4 30 3 0 0 10 -7 21 -8 15 -8
19 0 15 6 -4 12 -1 12 6 1 7 2 20 3 28 1 8 -3 21 -8 28 -5 8 -4 12 5 12 9 0
10 3 3 8 -6 4 -11 14 -12 22 -1 17 -10 55 -12 55 -1 0 -3 14 -5 30 -1 17 -3
36 -4 44 0 7 -7 11 -16 7 -8 -3 -15 -1 -15 4 0 6 5 10 12 10 6 0 3 7 -8 16
-10 8 -13 13 -6 9 6 -3 12 -1 12 4 0 6 -4 11 -8 11 -5 0 -9 14 -9 31 0 19 -7
37 -18 45 -14 10 -15 14 -4 14 8 0 10 3 4 8 -10 7 -17 27 -18 50 0 7 -6 11
-14 8 -7 -3 -12 -2 -12 2 4 24 -3 44 -21 59 -11 10 -20 23 -20 31 0 7 -10 17
-22 22 -14 5 -17 9 -8 10 9 0 6 6 -10 15 -14 8 -19 14 -11 15 11 0 10 4 -5 16
-10 8 -13 12 -5 8 10 -5 12 -3 7 5 -5 7 -14 10 -21 7 -9 -3 -12 2 -10 14 2 10
-4 25 -13 32 -13 11 -15 11 -8 -2 4 -8 -2 -3 -14 12 -14 18 -27 25 -37 21 -12
-5 -14 -3 -8 8 4 8 5 11 0 7 -4 -4 -15 -2 -23 5 -13 10 -15 9 -8 -3 4 -9 1 -8
-7 3 -8 9 -19 17 -26 17 -6 0 -11 5 -11 11 0 5 -4 7 -10 4 -5 -3 -10 1 -10 9
0 15 -17 21 -49 17 -7 -2 -10 2 -6 8 3 6 -1 11 -9 11 -9 0 -16 5 -16 10 0 6
-15 10 -32 10 -25 0 -29 3 -18 10 12 8 11 10 -7 10 -13 0 -26 0 -29 -1 -4 0
-11 5 -15 13 -7 10 -9 10 -9 0 0 -7 -5 -10 -10 -7 -6 4 -8 10 -5 15 7 11 -29
7 -37 -5 -5 -7 -10 -7 -15 0 -10 12 -39 13 -50 1 -5 -5 -2 -6 6 -1 10 5 12 4
7 -4 -4 -6 -12 -9 -17 -5 -5 3 -6 10 -3 16 5 7 0 9 -14 6 -12 -4 -22 -2 -22 3
0 6 -7 6 -18 0 -11 -6 -23 -6 -28 -1 -5 4 -22 11 -39 13 -16 3 -38 8 -48 12
-10 4 -24 1 -34 -6 -12 -10 -15 -10 -9 -1 4 7 1 12 -8 12 -9 0 -16 -6 -16 -12
0 -10 -3 -9 -9 1 -6 9 -11 10 -15 2 -4 -6 -12 -11 -17 -11 -6 0 -8 4 -5 9 4 5
-3 7 -14 4 -11 -3 -20 -10 -20 -16 0 -6 -7 -2 -16 9 -8 10 -12 12 -8 4 5 -10
-1 -8 -16 5 -14 12 -20 14 -15 5 6 -11 3 -10 -12 3 -23 20 -44 22 -62 5 -11
-10 -13 -10 -7 0 8 13 7 13 -12 5z m-791 -516 c-10 -9 -11 -8 -5 6 3 10 9 15
12 12 3 -3 0 -11 -7 -18z m-31 -1261 c0 -3 -4 -8 -10 -11 -5 -3 -10 -1 -10 4
0 6 5 11 10 11 6 0 10 -2 10 -4z"/>
</g>
</svg>
